<?xml version="1.0" encoding="UTF-8"?>
<!DOCTYPE svg PUBLIC "-//W3C//DTD SVG 1.1//EN" "http://www.w3.org/Graphics/SVG/1.1/DTD/svg11.dtd">
<svg xmlns="http://www.w3.org/2000/svg" xmlns:xlink="http://www.w3.org/1999/xlink">
<symbol id="chevron-left" viewBox="0 0 407.436 407.436">
	<path d="M315.869 21.178L294.621 0 91.566 203.718l203.055 203.718 21.248-21.178-181.945-182.54z"/>
</symbol>
<symbol id="chevron-right" viewBox="0 0 407.436 407.436">
	<path d="M112.814 0L91.566 21.178l181.946 182.54-181.946 182.54 21.248 21.178 203.055-203.718z"/>
</symbol>
<symbol id="chevron" viewBox="0 0 14 7">
	<path fill="#0E3154" d="M14 0H0l7 7 7-7z"/>
</symbol>
<symbol id="filter-solid" viewBox="0 0 20 14">
	<path fill="#0E3154" stroke="#0E3154" d="M18 1H2l6.5 7v5H11V8l7-7z"/>
</symbol>
<symbol id="filter-stroke" viewBox="0 0 20 14">
	<path stroke="#0E3154" d="M18 1H2l6.5 7v5H11V8l7-7z"/>
</symbol>
<symbol id="filter" viewBox="0 0 20 14">
	<path d="M18 1H2l6.5 7v5H11V8l7-7z"/>
</symbol>
<symbol id="search" viewBox="0 0 32 30">
	<circle cx="12.472" cy="11.628" r="8.384" fill="transparent" stroke="#0E3154" stroke-width="3" transform="rotate(6.978 12.472 11.628)"/>
	<path stroke="#0E3154" stroke-width="3" d="M18.898 18.299l9.166 10.175"/>
</symbol>
</svg>